<?xml version="1.0" encoding="UTF-8" standalone="no"?>
<!DOCTYPE svg PUBLIC "-//W3C//DTD SVG 1.1//EN" "http://www.w3.org/Graphics/SVG/1.1/DTD/svg11.dtd">
<svg xmlns="http://www.w3.org/2000/svg" version="1.1" viewBox="0.00 0.00 248.00 102.00">
<g stroke-width="2.00" fill="none" stroke-linecap="butt">
<path stroke="#353a74" vector-effect="non-scaling-stroke" d="
  M 34.40 50.39
  L 21.64 50.36"
/>
<path stroke="#353a74" vector-effect="non-scaling-stroke" d="
  M 56.32 50.63
  L 43.52 50.61"
/>
<path stroke="#353a74" vector-effect="non-scaling-stroke" d="
  M 34.47 67.19
  L 21.65 67.22"
/>
<path stroke="#353a74" vector-effect="non-scaling-stroke" d="
  M 56.30 67.05
  Q 49.95 67.97 43.50 67.08"
/>
</g>
<path fill="#6974e8" d="
  M 0.00 82.09
  L 0.00 18.57
  Q 1.23 14.42 4.40 12.68
  Q 6.55 11.49 11.76 11.52
  Q 44.57 11.71 66.11 11.52
  Q 71.80 11.48 73.66 12.66
  Q 76.87 14.71 77.87 18.69
  A 1.26 1.12 -55.7 0 1 77.91 19.00
  L 77.90 82.34
  A 0.24 0.08 -63.4 0 1 77.89 82.41
  Q 76.81 86.45 73.61 88.37
  Q 71.66 89.53 66.71 89.50
  Q 41.00 89.31 10.93 89.50
  Q 6.16 89.53 3.90 88.07
  Q 0.90 86.14 0.00 82.09
  Z
  M 73.74 50.52
  A 34.70 34.70 0.0 0 0 39.04 15.82
  A 34.70 34.70 0.0 0 0 4.34 50.52
  A 34.70 34.70 0.0 0 0 39.04 85.22
  A 34.70 34.70 0.0 0 0 73.74 50.52
  Z"
/>
<path fill="#6974e8" d="
  M 89.35 40.08
  C 91.63 41.07 98.36 43.63 99.91 40.32
  A 2.79 2.62 28.3 0 0 98.76 36.88
  C 94.62 34.38 88.70 32.97 89.18 26.78
  C 89.79 18.82 99.64 19.37 104.66 21.71
  A 0.82 0.81 27.7 0 1 105.02 22.85
  L 103.53 25.42
  A 0.69 0.68 -63.0 0 1 102.66 25.71
  C 100.25 24.64 95.38 23.22 94.39 26.65
  A 2.50 2.37 22.3 0 0 95.65 29.46
  C 99.40 31.44 104.66 33.25 105.26 37.80
  C 106.51 47.18 95.00 47.24 89.31 44.99
  A 0.80 0.80 0.0 0 1 88.81 44.25
  L 88.81 40.44
  A 0.39 0.39 0.0 0 1 89.35 40.08
  Z"
/>
<path fill="#6974e8" d="
  M 163.38 30.37
  L 158.90 30.37
  A 0.61 0.60 90.0 0 0 158.30 30.98
  L 158.30 40.27
  A 1.89 1.88 -86.0 0 0 159.92 42.14
  Q 161.65 42.39 163.27 41.68
  A 0.49 0.48 78.2 0 1 163.95 42.13
  L 163.95 44.78
  A 0.89 0.89 0.0 0 1 163.33 45.63
  C 158.57 47.17 153.06 46.52 153.07 40.24
  Q 153.08 31.49 153.08 31.16
  A 0.80 0.79 -82.6 0 0 152.51 30.41
  Q 152.18 30.31 151.35 30.48
  A 0.68 0.68 0.0 0 1 150.57 30.03
  C 150.29 29.19 150.44 28.21 151.32 27.77
  Q 154.20 26.31 154.57 23.24
  A 0.97 0.96 3.3 0 1 155.53 22.39
  L 157.65 22.39
  A 0.62 0.62 0.0 0 1 158.27 23.01
  L 158.27 25.89
  A 0.66 0.65 -90.0 0 0 158.92 26.55
  L 163.37 26.55
  A 0.33 0.33 0.0 0 1 163.70 26.88
  L 163.70 30.06
  A 0.32 0.31 0.0 0 1 163.38 30.37
  Z"
/>
<rect fill="#6974e8" x="26.07" y="22.53" width="25.90" height="11.44" rx="0.61"/>
<path fill="#6974e8" d="
  M 115.01 37.48
  A 1.23 1.23 0.0 0 0 113.94 39.32
  L 114.50 40.28
  A 4.24 4.22 76.4 0 0 117.94 42.39
  Q 121.71 42.58 124.56 41.19
  A 0.57 0.56 77.0 0 1 125.37 41.70
  L 125.37 44.11
  A 1.21 1.20 79.3 0 1 124.61 45.23
  C 118.23 47.73 109.32 46.30 108.62 37.85
  Q 108.26 33.47 109.77 30.61
  C 112.03 26.36 117.52 25.15 121.63 26.91
  Q 127.06 29.24 126.38 36.89
  A 0.64 0.64 0.0 0 1 125.74 37.48
  L 115.01 37.48
  Z
  M 114.49 34.10
  L 121.05 34.14
  A 0.40 0.40 0.0 0 0 121.45 33.74
  L 121.45 33.44
  A 3.62 3.56 -89.7 0 0 117.91 29.80
  L 117.67 29.80
  A 3.62 3.56 -89.7 0 0 114.09 33.40
  L 114.09 33.70
  A 0.40 0.40 0.0 0 0 114.49 34.10
  Z"
/>
<path fill="#6974e8" d="
  M 133.09 31.11
  L 131.43 28.21
  A 0.28 0.28 0.0 0 1 131.55 27.82
  C 136.88 25.27 146.85 24.56 146.84 33.10
  Q 146.84 39.12 146.85 45.23
  A 0.75 0.75 0.0 0 1 146.10 45.99
  L 143.86 45.98
  A 0.65 0.65 0.0 0 1 143.30 45.66
  L 142.27 43.86
  A 0.44 0.44 0.0 0 0 141.56 43.79
  C 137.41 48.43 128.93 46.89 129.61 39.34
  Q 129.81 37.17 131.41 35.88
  Q 133.99 33.81 140.36 34.09
  A 1.39 1.38 -13.7 0 0 141.62 32.02
  L 141.15 31.21
  A 2.44 2.43 -16.5 0 0 138.90 29.99
  Q 135.54 30.16 133.51 31.24
  A 0.32 0.31 -28.6 0 1 133.09 31.11
  Z
  M 140.92 36.88
  C 137.83 37.03 133.92 37.45 135.06 41.11
  A 2.52 2.11 -12.6 0 0 137.77 42.51
  Q 142.38 41.76 141.61 37.42
  A 0.67 0.67 0.0 0 0 140.92 36.88
  Z"
/>
<path fill="#6974e8" d="
  M 34.40 50.39
  L 21.64 50.36
  C 21.60 47.61 20.88 43.80 24.30 42.72
  A 3.04 2.79 -53.1 0 1 25.05 42.58
  Q 28.83 42.38 31.36 42.68
  Q 33.40 42.91 34.29 45.22
  A 1.65 1.62 35.8 0 1 34.40 45.86
  L 34.40 50.39
  Z"
/>
<path fill="#6974e8" d="
  M 56.32 50.63
  L 43.52 50.61
  L 43.61 45.85
  A 2.16 2.09 -34.6 0 1 43.75 45.15
  Q 44.66 42.91 46.73 42.68
  Q 49.11 42.40 53.17 42.60
  A 1.78 1.70 59.5 0 1 53.91 42.81
  C 57.27 44.58 56.44 47.58 56.32 50.63
  Z"
/>
<path fill="#000000" d="
  M 21.64 50.36
  L 34.40 50.39
  Q 34.93 52.02 34.59 54.06
  A 0.67 0.66 4.5 0 1 33.93 54.61
  L 22.25 54.61
  A 0.67 0.66 84.1 0 1 21.60 54.08
  Q 21.20 52.08 21.64 50.36
  Z"
/>
<path fill="#000000" d="
  M 56.32 50.63
  Q 56.70 52.25 56.39 54.26
  A 0.66 0.66 0.0 0 1 55.74 54.81
  L 44.03 54.81
  A 0.67 0.67 0.0 0 1 43.38 54.29
  Q 42.91 52.26 43.52 50.61
  L 56.32 50.63
  Z"
/>
<rect fill="#6974e8" x="112.47" y="54.84" width="5.20" height="27.10" rx="0.47"/>
<path fill="#6974e8" d="
  M 95.66 73.52
  L 95.66 81.41
  A 0.53 0.53 0.0 0 1 95.13 81.94
  L 90.97 81.94
  A 0.58 0.58 0.0 0 1 90.39 81.36
  L 90.39 57.19
  A 0.60 0.60 0.0 0 1 90.98 56.59
  C 99.22 56.42 109.35 55.28 107.70 66.33
  C 106.86 71.98 101.55 73.06 96.37 72.84
  A 0.68 0.68 0.0 0 0 95.66 73.52
  Z
  M 95.64 61.15
  L 95.72 68.19
  A 0.32 0.32 0.0 0 0 96.04 68.50
  L 98.59 68.48
  A 4.03 3.59 -0.6 0 0 102.58 64.84
  L 102.58 64.34
  A 4.03 3.59 -0.6 0 0 98.51 60.80
  L 95.96 60.82
  A 0.32 0.32 0.0 0 0 95.64 61.15
  Z"
/>
<path fill="#6974e8" d="
  M 184.14 72.84
  A 0.68 0.68 0.0 0 0 183.43 73.52
  L 183.43 81.41
  A 0.53 0.53 0.0 0 1 182.90 81.94
  L 178.74 81.94
  A 0.58 0.58 0.0 0 1 178.16 81.36
  L 178.15 57.20
  A 0.60 0.60 0.0 0 1 178.74 56.60
  C 186.98 56.43 197.10 55.28 195.46 66.33
  C 194.62 71.98 189.31 73.06 184.14 72.84
  Z
  M 183.42 61.10
  L 183.44 68.22
  A 0.32 0.32 0.0 0 0 183.76 68.54
  L 186.24 68.53
  A 4.14 3.66 -0.2 0 0 190.37 64.86
  L 190.37 64.42
  A 4.14 3.66 -0.2 0 0 186.22 60.77
  L 183.74 60.78
  A 0.32 0.32 0.0 0 0 183.42 61.10
  Z"
/>
<path fill="#6974e8" d="
  M 34.47 67.19
  L 21.65 67.22
  L 21.63 62.42
  A 2.99 2.99 0.0 0 1 24.62 59.42
  L 31.74 59.42
  A 0.66 0.62 -28.2 0 1 32.07 59.51
  C 35.22 61.42 34.46 64.13 34.47 67.19
  Z"
/>
<path fill="#6974e8" d="
  M 56.30 67.05
  Q 49.95 67.97 43.50 67.08
  C 43.72 64.14 42.83 62.07 45.35 59.77
  A 1.21 1.21 0.0 0 1 46.18 59.44
  L 53.56 59.44
  A 2.65 2.64 89.4 0 1 56.20 62.04
  L 56.30 67.05
  Z"
/>
<path fill="#6974e8" d="
  M 205.36 65.67
  Q 205.54 65.50 206.77 64.04
  Q 208.58 61.87 212.24 62.20
  A 0.47 0.46 2.7 0 1 212.67 62.66
  L 212.67 66.67
  A 0.55 0.55 0.0 0 1 212.05 67.21
  Q 205.51 66.41 205.46 72.50
  Q 205.41 77.45 205.43 81.37
  A 0.62 0.61 90.0 0 1 204.82 81.99
  L 200.79 81.99
  A 0.53 0.53 0.0 0 1 200.26 81.46
  L 200.26 63.20
  A 0.68 0.68 0.0 0 1 200.94 62.52
  L 203.55 62.52
  A 0.87 0.86 84.8 0 1 204.40 63.23
  L 204.82 65.49
  A 0.33 0.33 0.0 0 0 205.36 65.67
  Z"
/>
<path fill="#6974e8" d="
  M 124.06 63.84
  C 129.38 61.28 139.35 60.55 139.36 69.09
  Q 139.37 75.11 139.39 81.22
  A 0.75 0.75 0.0 0 1 138.64 81.98
  L 136.40 81.98
  A 0.65 0.65 0.0 0 1 135.84 81.66
  L 134.81 79.86
  A 0.44 0.44 0.0 0 0 134.10 79.79
  C 129.96 84.44 121.47 82.91 122.14 75.36
  Q 122.34 73.19 123.93 71.90
  Q 126.51 69.82 132.88 70.09
  A 1.39 1.38 -13.8 0 0 134.14 68.02
  L 133.67 67.21
  A 2.44 2.43 -16.6 0 0 131.41 65.99
  Q 128.05 66.17 126.03 67.25
  A 0.32 0.31 -28.7 0 1 125.61 67.13
  L 123.94 64.23
  A 0.28 0.28 0.0 0 1 124.06 63.84
  Z
  M 133.42 72.91
  C 130.31 73.06 126.38 73.48 127.53 77.16
  A 2.54 2.12 -12.6 0 0 130.25 78.57
  Q 134.89 77.82 134.11 73.45
  A 0.67 0.67 0.0 0 0 133.42 72.91
  Z"
/>
<path fill="#6974e8" d="
  M 150.23 81.52
  A 0.40 0.40 0.0 0 1 149.83 81.92
  L 145.41 81.92
  A 0.46 0.46 0.0 0 1 144.95 81.46
  L 144.95 63.22
  A 0.69 0.69 0.0 0 1 145.64 62.53
  L 148.37 62.53
  A 1.02 1.02 0.0 0 1 149.39 63.55
  L 149.39 64.56
  A 0.48 0.48 0.0 0 0 150.26 64.84
  Q 152.56 61.59 157.51 62.31
  C 161.52 62.89 162.87 65.65 162.86 69.56
  Q 162.85 74.80 162.84 81.50
  A 0.43 0.42 0.0 0 1 162.41 81.92
  L 158.10 81.92
  A 0.45 0.44 0.0 0 1 157.65 81.48
  L 157.65 69.44
  A 3.13 3.12 -3.5 0 0 154.14 66.34
  L 153.73 66.40
  A 3.99 3.99 0.0 0 0 150.23 70.36
  L 150.23 81.52
  Z"
/>
<path fill="#6974e8" d="
  M 234.0116 73.5191
  A 8.49 8.49 0.0 0 1 225.7164 82.1995
  L 224.1368 82.2354
  A 8.49 8.49 0.0 0 1 215.4564 73.9402
  L 215.3884 70.9409
  A 8.49 8.49 0.0 0 1 223.6836 62.2605
  L 225.2632 62.2246
  A 8.49 8.49 0.0 0 1 233.9436 70.5198
  L 234.0116 73.5191
  Z
  M 224.7000 66.1500
  A 6.10 4.21 -90.0 0 0 220.4900 72.2500
  A 6.10 4.21 -90.0 0 0 224.7000 78.3500
  A 6.10 4.21 -90.0 0 0 228.9100 72.2500
  A 6.10 4.21 -90.0 0 0 224.7000 66.1500
  Z"
/>
<path fill="#000000" d="
  M 43.50 67.08
  Q 49.95 67.97 56.30 67.05
  Q 56.72 68.59 56.44 70.86
  A 0.68 0.68 0.0 0 1 55.77 71.45
  L 44.00 71.45
  A 0.67 0.66 84.8 0 1 43.35 70.90
  Q 42.96 68.64 43.50 67.08
  Z"
/>
<path fill="#000000" d="
  M 34.47 67.19
  Q 34.99 68.91 34.56 70.90
  A 0.69 0.69 0.0 0 1 33.89 71.44
  L 22.25 71.44
  A 0.67 0.67 0.0 0 1 21.59 70.89
  Q 21.24 68.89 21.65 67.22
  L 34.47 67.19
  Z"
/>
</svg>
